<?xml version="1.0" standalone="no"?>
<!DOCTYPE svg PUBLIC "-//W3C//DTD SVG 20010904//EN"
 "http://www.w3.org/TR/2001/REC-SVG-20010904/DTD/svg10.dtd">
<svg version="1.0" xmlns="http://www.w3.org/2000/svg"
 width="320.000000pt" height="320.000000pt" viewBox="0 0 320.000000 320.000000"
 preserveAspectRatio="xMidYMid meet">
<metadata>
Created by potrace 1.14, written by Peter Selinger 2001-2017
</metadata>
<g transform="translate(0.000000,320.000000) scale(0.100000,-0.100000)"
fill="#000000" stroke="none">
<path d="M1280 2895 l-303 -304 -171 1 c-94 0 -185 -1 -201 -1 l-30 -1 0 -200
0 -200 -170 -170 -170 -170 290 0 290 0 387 387 388 388 388 -388 387 -387
283 0 c155 0 282 2 282 4 0 4 -1290 1295 -1327 1328 -18 17 -30 6 -323 -287z"/>
<path d="M1492 1823 c-112 -53 -175 -150 -179 -275 -3 -98 23 -164 87 -228 70
-70 129 -94 236 -93 107 0 223 72 267 166 l17 35 252 -2 253 -1 0 -317 0 -318
-132 0 c-73 0 -378 0 -678 0 -300 0 -621 0 -714 0 l-169 0 0 353 c-1 193 -1
370 -2 392 l0 40 -200 0 -200 0 -1 -165 c-1 -195 -1 -710 0 -896 l1 -131 1250
0 1250 -1 1 22 c0 33 1 1168 0 1196 l-1 25 -444 -1 c-244 -1 -448 1 -453 5 -4
3 -17 25 -28 49 -25 58 -112 136 -174 157 -71 23 -176 18 -239 -12z"/>
</g>
</svg>
